# Blender v3.2.1 OBJ File: ''
# www.blender.org
mtllib cover_title.mtl
o cover_title
v -2.518215 0.839405 1.081495
v 2.518215 0.839405 1.081495
v -2.518215 -0.839405 1.081495
v 2.518215 -0.839405 1.081495
v -2.647545 0.407326 0.860205
v 2.647545 0.407326 0.860205
v -2.647545 0.019007 0.778289
v 2.647545 0.019007 0.778289
v -2.647545 -0.083445 0.770436
v 2.647545 -0.083445 0.770436
v -0.500000 0.500000 0.000000
v -0.400000 0.500000 0.000000
v -0.500000 0.400000 0.000000
v -0.400000 0.400000 0.000000
v -0.300000 0.500000 0.000000
v -0.300000 0.400000 0.000000
v -0.200000 0.500000 0.000000
v -0.200000 0.400000 0.000000
v -0.100000 0.500000 0.000000
v -0.100000 0.400000 0.000000
v 0.000000 0.500000 0.000000
v 0.000000 0.400000 0.000000
v 0.100000 0.500000 0.000000
v 0.100000 0.400000 0.000000
v 0.200000 0.500000 0.000000
v 0.200000 0.400000 0.000000
v 0.300000 0.500000 0.000000
v 0.300000 0.400000 0.000000
v 0.400000 0.500000 0.000000
v 0.400000 0.400000 0.000000
v 0.500000 0.500000 0.000000
v 0.500000 0.400000 0.000000
v -0.500000 0.300000 0.000000
v -0.400000 0.300000 0.000000
v -0.300000 0.300000 0.000000
v -0.200000 0.300000 0.000000
v -0.100000 0.300000 0.000000
v 0.000000 0.300000 0.000000
v 0.100000 0.300000 0.000000
v 0.200000 0.300000 0.000000
v 0.300000 0.300000 0.000000
v 0.400000 0.300000 0.000000
v 0.500000 0.300000 0.000000
v -0.500000 0.200000 0.000000
v -0.400000 0.200000 0.000000
v -0.300000 0.200000 0.000000
v -0.200000 0.200000 0.000000
v -0.100000 0.200000 0.000000
v 0.000000 0.200000 0.000000
v 0.100000 0.200000 0.000000
v 0.200000 0.200000 0.000000
v 0.300000 0.200000 0.000000
v 0.400000 0.200000 0.000000
v 0.500000 0.200000 0.000000
v -0.500000 0.100000 0.000000
v -0.400000 0.100000 0.000000
v -0.300000 0.100000 0.000000
v -0.200000 0.100000 0.000000
v -0.100000 0.100000 0.000000
v 0.000000 0.100000 0.000000
v 0.100000 0.100000 0.000000
v 0.200000 0.100000 0.000000
v 0.300000 0.100000 0.000000
v 0.400000 0.100000 0.000000
v 0.500000 0.100000 0.000000
v -0.500000 0.000000 0.000000
v -0.400000 0.000000 0.000000
v 0.400000 0.000000 0.000000
v 0.500000 0.000000 0.000000
v -0.500000 -0.100000 -0.000000
v -0.400000 -0.100000 -0.000000
v 0.400000 -0.100000 -0.000000
v 0.500000 -0.100000 -0.000000
v -0.500000 -0.200000 -0.000000
v -0.400000 -0.200000 -0.000000
v 0.400000 -0.200000 -0.000000
v 0.500000 -0.200000 -0.000000
v -0.500000 -0.300000 -0.000000
v -0.400000 -0.300000 -0.000000
v -0.300000 -0.200000 -0.000000
v -0.300000 -0.300000 -0.000000
v -0.200000 -0.200000 -0.000000
v -0.200000 -0.300000 -0.000000
v -0.100000 -0.200000 -0.000000
v -0.100000 -0.300000 -0.000000
v 0.000000 -0.200000 -0.000000
v 0.000000 -0.300000 -0.000000
v 0.100000 -0.200000 -0.000000
v 0.100000 -0.300000 -0.000000
v 0.200000 -0.200000 -0.000000
v 0.200000 -0.300000 -0.000000
v 0.300000 -0.200000 -0.000000
v 0.300000 -0.300000 -0.000000
v 0.400000 -0.300000 -0.000000
v 0.500000 -0.300000 -0.000000
v -0.500000 -0.400000 -0.000000
v -0.400000 -0.400000 -0.000000
v -0.300000 -0.400000 -0.000000
v -0.200000 -0.400000 -0.000000
v -0.100000 -0.400000 -0.000000
v 0.000000 -0.400000 -0.000000
v 0.100000 -0.400000 -0.000000
v 0.200000 -0.400000 -0.000000
v 0.300000 -0.400000 -0.000000
v 0.400000 -0.400000 -0.000000
v 0.500000 -0.400000 -0.000000
v -0.500000 -0.500000 -0.000000
v -0.400000 -0.500000 -0.000000
v -0.300000 -0.500000 -0.000000
v -0.200000 -0.500000 -0.000000
v -0.100000 -0.500000 -0.000000
v 0.000000 -0.500000 -0.000000
v 0.100000 -0.500000 -0.000000
v 0.200000 -0.500000 -0.000000
v 0.300000 -0.500000 -0.000000
v 0.400000 -0.500000 -0.000000
v 0.500000 -0.500000 -0.000000
v -2.518215 0.839405 1.081495
v 2.518215 0.839405 1.081495
v -2.518215 -0.839405 1.081495
v 2.518215 -0.839405 1.081495
v -2.647545 0.407326 0.860205
v 2.647545 0.407326 0.860205
v -2.647545 0.019007 0.778289
v 2.647545 0.019007 0.778289
v -2.647545 -0.083445 0.770436
v 2.647545 -0.083445 0.770436
v -0.500000 0.500000 0.000000
v -0.400000 0.500000 0.000000
v -0.500000 0.400000 0.000000
v -0.400000 0.400000 0.000000
v -0.300000 0.500000 0.000000
v -0.300000 0.400000 0.000000
v -0.200000 0.500000 0.000000
v -0.200000 0.400000 0.000000
v -0.100000 0.500000 0.000000
v -0.100000 0.400000 0.000000
v 0.000000 0.500000 0.000000
v 0.000000 0.400000 0.000000
v 0.100000 0.500000 0.000000
v 0.100000 0.400000 0.000000
v 0.200000 0.500000 0.000000
v 0.200000 0.400000 0.000000
v 0.300000 0.500000 0.000000
v 0.300000 0.400000 0.000000
v 0.400000 0.500000 0.000000
v 0.400000 0.400000 0.000000
v 0.500000 0.500000 0.000000
v 0.500000 0.400000 0.000000
v -0.500000 0.300000 0.000000
v -0.400000 0.300000 0.000000
v -0.300000 0.300000 0.000000
v -0.200000 0.300000 0.000000
v -0.100000 0.300000 0.000000
v 0.000000 0.300000 0.000000
v 0.100000 0.300000 0.000000
v 0.200000 0.300000 0.000000
v 0.300000 0.300000 0.000000
v 0.400000 0.300000 0.000000
v 0.500000 0.300000 0.000000
v -0.500000 0.200000 0.000000
v -0.400000 0.200000 0.000000
v -0.300000 0.200000 0.000000
v -0.200000 0.200000 0.000000
v -0.100000 0.200000 0.000000
v 0.000000 0.200000 0.000000
v 0.100000 0.200000 0.000000
v 0.200000 0.200000 0.000000
v 0.300000 0.200000 0.000000
v 0.400000 0.200000 0.000000
v 0.500000 0.200000 0.000000
v -0.500000 0.100000 0.000000
v -0.400000 0.100000 0.000000
v -0.300000 0.100000 0.000000
v -0.200000 0.100000 0.000000
v -0.100000 0.100000 0.000000
v 0.000000 0.100000 0.000000
v 0.100000 0.100000 0.000000
v 0.200000 0.100000 0.000000
v 0.300000 0.100000 0.000000
v 0.400000 0.100000 0.000000
v 0.500000 0.100000 0.000000
v -0.500000 0.000000 0.000000
v -0.400000 0.000000 0.000000
v 0.400000 0.000000 0.000000
v 0.500000 0.000000 0.000000
v -0.500000 -0.100000 -0.000000
v -0.400000 -0.100000 -0.000000
v 0.400000 -0.100000 -0.000000
v 0.500000 -0.100000 -0.000000
v -0.500000 -0.200000 -0.000000
v -0.400000 -0.200000 -0.000000
v 0.400000 -0.200000 -0.000000
v 0.500000 -0.200000 -0.000000
v -0.500000 -0.300000 -0.000000
v -0.400000 -0.300000 -0.000000
v -0.300000 -0.200000 -0.000000
v -0.300000 -0.300000 -0.000000
v -0.200000 -0.200000 -0.000000
v -0.200000 -0.300000 -0.000000
v -0.100000 -0.200000 -0.000000
v -0.100000 -0.300000 -0.000000
v 0.000000 -0.200000 -0.000000
v 0.000000 -0.300000 -0.000000
v 0.100000 -0.200000 -0.000000
v 0.100000 -0.300000 -0.000000
v 0.200000 -0.200000 -0.000000
v 0.200000 -0.300000 -0.000000
v 0.300000 -0.200000 -0.000000
v 0.300000 -0.300000 -0.000000
v 0.400000 -0.300000 -0.000000
v 0.500000 -0.300000 -0.000000
v -0.500000 -0.400000 -0.000000
v -0.400000 -0.400000 -0.000000
v -0.300000 -0.400000 -0.000000
v -0.200000 -0.400000 -0.000000
v -0.100000 -0.400000 -0.000000
v 0.000000 -0.400000 -0.000000
v 0.100000 -0.400000 -0.000000
v 0.200000 -0.400000 -0.000000
v 0.300000 -0.400000 -0.000000
v 0.400000 -0.400000 -0.000000
v 0.500000 -0.400000 -0.000000
v -0.500000 -0.500000 -0.000000
v -0.400000 -0.500000 -0.000000
v -0.300000 -0.500000 -0.000000
v -0.200000 -0.500000 -0.000000
v -0.100000 -0.500000 -0.000000
v 0.000000 -0.500000 -0.000000
v 0.100000 -0.500000 -0.000000
v 0.200000 -0.500000 -0.000000
v 0.300000 -0.500000 -0.000000
v 0.400000 -0.500000 -0.000000
v 0.500000 -0.500000 -0.000000
vt 0.454055 0.723822
vt 0.704085 0.723822
vt 0.454055 0.973852
vt 0.704085 0.973852
vt 0.724945 0.722620
vt 0.977380 0.722620
vt 0.724945 0.874337
vt 0.977380 0.874337
vt 0.724945 0.975054
vt 0.977380 0.975054
vt 0.027311 0.018008
vt 0.094872 0.018008
vt 0.027311 0.085569
vt 0.094872 0.085569
vt 0.162433 0.018008
vt 0.162433 0.085569
vt 0.229994 0.018008
vt 0.229994 0.085569
vt 0.297555 0.018008
vt 0.297555 0.085569
vt 0.365116 0.018008
vt 0.365116 0.085569
vt 0.432677 0.018008
vt 0.432677 0.085569
vt 0.500239 0.018008
vt 0.500239 0.085569
vt 0.567800 0.018008
vt 0.567800 0.085569
vt 0.635361 0.018008
vt 0.635361 0.085569
vt 0.702922 0.018008
vt 0.702922 0.085569
vt 0.027311 0.153131
vt 0.094872 0.153131
vt 0.162433 0.153131
vt 0.229994 0.153131
vt 0.297555 0.153131
vt 0.365116 0.153131
vt 0.432677 0.153131
vt 0.500239 0.153131
vt 0.567800 0.153131
vt 0.635361 0.153131
vt 0.702922 0.153131
vt 0.027311 0.220692
vt 0.094872 0.220692
vt 0.162433 0.220692
vt 0.229994 0.220692
vt 0.297555 0.220692
vt 0.365116 0.220692
vt 0.432677 0.220692
vt 0.500239 0.220692
vt 0.567800 0.220692
vt 0.635361 0.220692
vt 0.702922 0.220692
vt 0.027311 0.288253
vt 0.094872 0.288253
vt 0.162433 0.288253
vt 0.229994 0.288253
vt 0.297555 0.288253
vt 0.365116 0.288253
vt 0.432677 0.288253
vt 0.500239 0.288253
vt 0.567800 0.288253
vt 0.635361 0.288253
vt 0.702922 0.288253
vt 0.027311 0.355814
vt 0.094872 0.355814
vt 0.635361 0.355814
vt 0.702922 0.355814
vt 0.027311 0.423375
vt 0.094872 0.423375
vt 0.635361 0.423375
vt 0.702922 0.423375
vt 0.027311 0.490936
vt 0.094872 0.490936
vt 0.635361 0.490936
vt 0.702922 0.490936
vt 0.027311 0.558497
vt 0.094872 0.558497
vt 0.162433 0.490936
vt 0.162433 0.558497
vt 0.229994 0.490936
vt 0.229994 0.558497
vt 0.297555 0.490936
vt 0.297555 0.558497
vt 0.365116 0.490936
vt 0.365116 0.558497
vt 0.432677 0.490936
vt 0.432677 0.558497
vt 0.500239 0.490936
vt 0.500239 0.558497
vt 0.567800 0.490936
vt 0.567800 0.558497
vt 0.635361 0.558497
vt 0.702922 0.558497
vt 0.027311 0.626058
vt 0.094872 0.626058
vt 0.162433 0.626058
vt 0.229994 0.626058
vt 0.297555 0.626058
vt 0.365116 0.626058
vt 0.432677 0.626058
vt 0.500239 0.626058
vt 0.567800 0.626058
vt 0.635361 0.626058
vt 0.702922 0.626058
vt 0.027311 0.693620
vt 0.094872 0.693620
vt 0.162433 0.693620
vt 0.229994 0.693620
vt 0.297555 0.693620
vt 0.365116 0.693620
vt 0.432677 0.693620
vt 0.500239 0.693620
vt 0.567800 0.693620
vt 0.635361 0.693620
vt 0.702922 0.693620
vt 0.454055 0.723822
vt 0.704085 0.723822
vt 0.454055 0.973852
vt 0.704085 0.973852
vt 0.724945 0.722620
vt 0.977380 0.722620
vt 0.724945 0.874337
vt 0.977380 0.874337
vt 0.724945 0.975054
vt 0.977380 0.975054
vt 0.027311 0.018008
vt 0.094872 0.018008
vt 0.027311 0.085569
vt 0.094872 0.085569
vt 0.162433 0.018008
vt 0.162433 0.085569
vt 0.229994 0.018008
vt 0.229994 0.085569
vt 0.297555 0.018008
vt 0.297555 0.085569
vt 0.365116 0.018008
vt 0.365116 0.085569
vt 0.432677 0.018008
vt 0.432677 0.085569
vt 0.500239 0.018008
vt 0.500239 0.085569
vt 0.567800 0.018008
vt 0.567800 0.085569
vt 0.635361 0.018008
vt 0.635361 0.085569
vt 0.702922 0.018008
vt 0.702922 0.085569
vt 0.027311 0.153131
vt 0.094872 0.153131
vt 0.162433 0.153131
vt 0.229994 0.153131
vt 0.297555 0.153131
vt 0.365116 0.153131
vt 0.432677 0.153131
vt 0.500239 0.153131
vt 0.567800 0.153131
vt 0.635361 0.153131
vt 0.702922 0.153131
vt 0.027311 0.220692
vt 0.094872 0.220692
vt 0.162433 0.220692
vt 0.229994 0.220692
vt 0.297555 0.220692
vt 0.365116 0.220692
vt 0.432677 0.220692
vt 0.500239 0.220692
vt 0.567800 0.220692
vt 0.635361 0.220692
vt 0.702922 0.220692
vt 0.027311 0.288253
vt 0.094872 0.288253
vt 0.162433 0.288253
vt 0.229994 0.288253
vt 0.297555 0.288253
vt 0.365116 0.288253
vt 0.432677 0.288253
vt 0.500239 0.288253
vt 0.567800 0.288253
vt 0.635361 0.288253
vt 0.702922 0.288253
vt 0.027311 0.355814
vt 0.094872 0.355814
vt 0.635361 0.355814
vt 0.702922 0.355814
vt 0.027311 0.423375
vt 0.094872 0.423375
vt 0.635361 0.423375
vt 0.702922 0.423375
vt 0.027311 0.490936
vt 0.094872 0.490936
vt 0.635361 0.490936
vt 0.702922 0.490936
vt 0.027311 0.558497
vt 0.094872 0.558497
vt 0.162433 0.490936
vt 0.162433 0.558497
vt 0.229994 0.490936
vt 0.229994 0.558497
vt 0.297555 0.490936
vt 0.297555 0.558497
vt 0.365116 0.490936
vt 0.365116 0.558497
vt 0.432677 0.490936
vt 0.432677 0.558497
vt 0.500239 0.490936
vt 0.500239 0.558497
vt 0.567800 0.490936
vt 0.567800 0.558497
vt 0.635361 0.558497
vt 0.702922 0.558497
vt 0.027311 0.626058
vt 0.094872 0.626058
vt 0.162433 0.626058
vt 0.229994 0.626058
vt 0.297555 0.626058
vt 0.365116 0.626058
vt 0.432677 0.626058
vt 0.500239 0.626058
vt 0.567800 0.626058
vt 0.635361 0.626058
vt 0.702922 0.626058
vt 0.027311 0.693620
vt 0.094872 0.693620
vt 0.162433 0.693620
vt 0.229994 0.693620
vt 0.297555 0.693620
vt 0.365116 0.693620
vt 0.432677 0.693620
vt 0.500239 0.693620
vt 0.567800 0.693620
vt 0.635361 0.693620
vt 0.702922 0.693620
vn 0.0000 0.0000 -1.0000
vn 0.0000 0.2064 -0.9785
vn 0.0000 0.3444 -0.9388
vn 0.0000 0.0764 -0.9971
usemtl cover:lambert2SG
s 1
f 1/1/1 2/2/1 3/3/1
f 3/3/1 2/2/1 4/4/1
f 5/5/2 6/6/2 7/7/2
f 7/7/2 6/6/2 8/8/2
f 7/7/3 8/8/3 9/9/4
f 9/9/4 8/8/3 10/10/4
f 11/11/1 12/12/1 13/13/1
f 13/13/1 12/12/1 14/14/1
f 12/12/1 15/15/1 14/14/1
f 14/14/1 15/15/1 16/16/1
f 15/15/1 17/17/1 16/16/1
f 16/16/1 17/17/1 18/18/1
f 17/17/1 19/19/1 18/18/1
f 18/18/1 19/19/1 20/20/1
f 19/19/1 21/21/1 20/20/1
f 20/20/1 21/21/1 22/22/1
f 21/21/1 23/23/1 22/22/1
f 22/22/1 23/23/1 24/24/1
f 23/23/1 25/25/1 24/24/1
f 24/24/1 25/25/1 26/26/1
f 25/25/1 27/27/1 26/26/1
f 26/26/1 27/27/1 28/28/1
f 27/27/1 29/29/1 28/28/1
f 28/28/1 29/29/1 30/30/1
f 29/29/1 31/31/1 30/30/1
f 30/30/1 31/31/1 32/32/1
f 13/13/1 14/14/1 33/33/1
f 33/33/1 14/14/1 34/34/1
f 14/14/1 16/16/1 34/34/1
f 34/34/1 16/16/1 35/35/1
f 16/16/1 18/18/1 35/35/1
f 35/35/1 18/18/1 36/36/1
f 18/18/1 20/20/1 36/36/1
f 36/36/1 20/20/1 37/37/1
f 20/20/1 22/22/1 37/37/1
f 37/37/1 22/22/1 38/38/1
f 22/22/1 24/24/1 38/38/1
f 38/38/1 24/24/1 39/39/1
f 24/24/1 26/26/1 39/39/1
f 39/39/1 26/26/1 40/40/1
f 26/26/1 28/28/1 40/40/1
f 40/40/1 28/28/1 41/41/1
f 28/28/1 30/30/1 41/41/1
f 41/41/1 30/30/1 42/42/1
f 30/30/1 32/32/1 42/42/1
f 42/42/1 32/32/1 43/43/1
f 33/33/1 34/34/1 44/44/1
f 44/44/1 34/34/1 45/45/1
f 34/34/1 35/35/1 45/45/1
f 45/45/1 35/35/1 46/46/1
f 35/35/1 36/36/1 46/46/1
f 46/46/1 36/36/1 47/47/1
f 36/36/1 37/37/1 47/47/1
f 47/47/1 37/37/1 48/48/1
f 37/37/1 38/38/1 48/48/1
f 48/48/1 38/38/1 49/49/1
f 38/38/1 39/39/1 49/49/1
f 49/49/1 39/39/1 50/50/1
f 39/39/1 40/40/1 50/50/1
f 50/50/1 40/40/1 51/51/1
f 40/40/1 41/41/1 51/51/1
f 51/51/1 41/41/1 52/52/1
f 41/41/1 42/42/1 52/52/1
f 52/52/1 42/42/1 53/53/1
f 42/42/1 43/43/1 53/53/1
f 53/53/1 43/43/1 54/54/1
f 44/44/1 45/45/1 55/55/1
f 55/55/1 45/45/1 56/56/1
f 45/45/1 46/46/1 56/56/1
f 56/56/1 46/46/1 57/57/1
f 46/46/1 47/47/1 57/57/1
f 57/57/1 47/47/1 58/58/1
f 47/47/1 48/48/1 58/58/1
f 58/58/1 48/48/1 59/59/1
f 48/48/1 49/49/1 59/59/1
f 59/59/1 49/49/1 60/60/1
f 49/49/1 50/50/1 60/60/1
f 60/60/1 50/50/1 61/61/1
f 50/50/1 51/51/1 61/61/1
f 61/61/1 51/51/1 62/62/1
f 51/51/1 52/52/1 62/62/1
f 62/62/1 52/52/1 63/63/1
f 52/52/1 53/53/1 63/63/1
f 63/63/1 53/53/1 64/64/1
f 53/53/1 54/54/1 64/64/1
f 64/64/1 54/54/1 65/65/1
f 55/55/1 56/56/1 66/66/1
f 66/66/1 56/56/1 67/67/1
f 64/64/1 65/65/1 68/68/1
f 68/68/1 65/65/1 69/69/1
f 66/66/1 67/67/1 70/70/1
f 70/70/1 67/67/1 71/71/1
f 68/68/1 69/69/1 72/72/1
f 72/72/1 69/69/1 73/73/1
f 70/70/1 71/71/1 74/74/1
f 74/74/1 71/71/1 75/75/1
f 72/72/1 73/73/1 76/76/1
f 76/76/1 73/73/1 77/77/1
f 74/74/1 75/75/1 78/78/1
f 78/78/1 75/75/1 79/79/1
f 75/75/1 80/80/1 79/79/1
f 79/79/1 80/80/1 81/81/1
f 80/80/1 82/82/1 81/81/1
f 81/81/1 82/82/1 83/83/1
f 82/82/1 84/84/1 83/83/1
f 83/83/1 84/84/1 85/85/1
f 84/84/1 86/86/1 85/85/1
f 85/85/1 86/86/1 87/87/1
f 86/86/1 88/88/1 87/87/1
f 87/87/1 88/88/1 89/89/1
f 88/88/1 90/90/1 89/89/1
f 89/89/1 90/90/1 91/91/1
f 90/90/1 92/92/1 91/91/1
f 91/91/1 92/92/1 93/93/1
f 92/92/1 76/76/1 93/93/1
f 93/93/1 76/76/1 94/94/1
f 76/76/1 77/77/1 94/94/1
f 94/94/1 77/77/1 95/95/1
f 78/78/1 79/79/1 96/96/1
f 96/96/1 79/79/1 97/97/1
f 79/79/1 81/81/1 97/97/1
f 97/97/1 81/81/1 98/98/1
f 81/81/1 83/83/1 98/98/1
f 98/98/1 83/83/1 99/99/1
f 83/83/1 85/85/1 99/99/1
f 99/99/1 85/85/1 100/100/1
f 85/85/1 87/87/1 100/100/1
f 100/100/1 87/87/1 101/101/1
f 87/87/1 89/89/1 101/101/1
f 101/101/1 89/89/1 102/102/1
f 89/89/1 91/91/1 102/102/1
f 102/102/1 91/91/1 103/103/1
f 91/91/1 93/93/1 103/103/1
f 103/103/1 93/93/1 104/104/1
f 93/93/1 94/94/1 104/104/1
f 104/104/1 94/94/1 105/105/1
f 94/94/1 95/95/1 105/105/1
f 105/105/1 95/95/1 106/106/1
f 96/96/1 97/97/1 107/107/1
f 107/107/1 97/97/1 108/108/1
f 97/97/1 98/98/1 108/108/1
f 108/108/1 98/98/1 109/109/1
f 98/98/1 99/99/1 109/109/1
f 109/109/1 99/99/1 110/110/1
f 99/99/1 100/100/1 110/110/1
f 110/110/1 100/100/1 111/111/1
f 100/100/1 101/101/1 111/111/1
f 111/111/1 101/101/1 112/112/1
f 101/101/1 102/102/1 112/112/1
f 112/112/1 102/102/1 113/113/1
f 102/102/1 103/103/1 113/113/1
f 113/113/1 103/103/1 114/114/1
f 103/103/1 104/104/1 114/114/1
f 114/114/1 104/104/1 115/115/1
f 104/104/1 105/105/1 115/115/1
f 115/115/1 105/105/1 116/116/1
f 105/105/1 106/106/1 116/116/1
f 116/116/1 106/106/1 117/117/1
f 118/118/1 119/119/1 120/120/1
f 120/120/1 119/119/1 121/121/1
f 122/122/2 123/123/2 124/124/2
f 124/124/2 123/123/2 125/125/2
f 124/124/3 125/125/3 126/126/4
f 126/126/4 125/125/3 127/127/4
f 128/128/1 129/129/1 130/130/1
f 130/130/1 129/129/1 131/131/1
f 129/129/1 132/132/1 131/131/1
f 131/131/1 132/132/1 133/133/1
f 132/132/1 134/134/1 133/133/1
f 133/133/1 134/134/1 135/135/1
f 134/134/1 136/136/1 135/135/1
f 135/135/1 136/136/1 137/137/1
f 136/136/1 138/138/1 137/137/1
f 137/137/1 138/138/1 139/139/1
f 138/138/1 140/140/1 139/139/1
f 139/139/1 140/140/1 141/141/1
f 140/140/1 142/142/1 141/141/1
f 141/141/1 142/142/1 143/143/1
f 142/142/1 144/144/1 143/143/1
f 143/143/1 144/144/1 145/145/1
f 144/144/1 146/146/1 145/145/1
f 145/145/1 146/146/1 147/147/1
f 146/146/1 148/148/1 147/147/1
f 147/147/1 148/148/1 149/149/1
f 130/130/1 131/131/1 150/150/1
f 150/150/1 131/131/1 151/151/1
f 131/131/1 133/133/1 151/151/1
f 151/151/1 133/133/1 152/152/1
f 133/133/1 135/135/1 152/152/1
f 152/152/1 135/135/1 153/153/1
f 135/135/1 137/137/1 153/153/1
f 153/153/1 137/137/1 154/154/1
f 137/137/1 139/139/1 154/154/1
f 154/154/1 139/139/1 155/155/1
f 139/139/1 141/141/1 155/155/1
f 155/155/1 141/141/1 156/156/1
f 141/141/1 143/143/1 156/156/1
f 156/156/1 143/143/1 157/157/1
f 143/143/1 145/145/1 157/157/1
f 157/157/1 145/145/1 158/158/1
f 145/145/1 147/147/1 158/158/1
f 158/158/1 147/147/1 159/159/1
f 147/147/1 149/149/1 159/159/1
f 159/159/1 149/149/1 160/160/1
f 150/150/1 151/151/1 161/161/1
f 161/161/1 151/151/1 162/162/1
f 151/151/1 152/152/1 162/162/1
f 162/162/1 152/152/1 163/163/1
f 152/152/1 153/153/1 163/163/1
f 163/163/1 153/153/1 164/164/1
f 153/153/1 154/154/1 164/164/1
f 164/164/1 154/154/1 165/165/1
f 154/154/1 155/155/1 165/165/1
f 165/165/1 155/155/1 166/166/1
f 155/155/1 156/156/1 166/166/1
f 166/166/1 156/156/1 167/167/1
f 156/156/1 157/157/1 167/167/1
f 167/167/1 157/157/1 168/168/1
f 157/157/1 158/158/1 168/168/1
f 168/168/1 158/158/1 169/169/1
f 158/158/1 159/159/1 169/169/1
f 169/169/1 159/159/1 170/170/1
f 159/159/1 160/160/1 170/170/1
f 170/170/1 160/160/1 171/171/1
f 161/161/1 162/162/1 172/172/1
f 172/172/1 162/162/1 173/173/1
f 162/162/1 163/163/1 173/173/1
f 173/173/1 163/163/1 174/174/1
f 163/163/1 164/164/1 174/174/1
f 174/174/1 164/164/1 175/175/1
f 164/164/1 165/165/1 175/175/1
f 175/175/1 165/165/1 176/176/1
f 165/165/1 166/166/1 176/176/1
f 176/176/1 166/166/1 177/177/1
f 166/166/1 167/167/1 177/177/1
f 177/177/1 167/167/1 178/178/1
f 167/167/1 168/168/1 178/178/1
f 178/178/1 168/168/1 179/179/1
f 168/168/1 169/169/1 179/179/1
f 179/179/1 169/169/1 180/180/1
f 169/169/1 170/170/1 180/180/1
f 180/180/1 170/170/1 181/181/1
f 170/170/1 171/171/1 181/181/1
f 181/181/1 171/171/1 182/182/1
f 172/172/1 173/173/1 183/183/1
f 183/183/1 173/173/1 184/184/1
f 181/181/1 182/182/1 185/185/1
f 185/185/1 182/182/1 186/186/1
f 183/183/1 184/184/1 187/187/1
f 187/187/1 184/184/1 188/188/1
f 185/185/1 186/186/1 189/189/1
f 189/189/1 186/186/1 190/190/1
f 187/187/1 188/188/1 191/191/1
f 191/191/1 188/188/1 192/192/1
f 189/189/1 190/190/1 193/193/1
f 193/193/1 190/190/1 194/194/1
f 191/191/1 192/192/1 195/195/1
f 195/195/1 192/192/1 196/196/1
f 192/192/1 197/197/1 196/196/1
f 196/196/1 197/197/1 198/198/1
f 197/197/1 199/199/1 198/198/1
f 198/198/1 199/199/1 200/200/1
f 199/199/1 201/201/1 200/200/1
f 200/200/1 201/201/1 202/202/1
f 201/201/1 203/203/1 202/202/1
f 202/202/1 203/203/1 204/204/1
f 203/203/1 205/205/1 204/204/1
f 204/204/1 205/205/1 206/206/1
f 205/205/1 207/207/1 206/206/1
f 206/206/1 207/207/1 208/208/1
f 207/207/1 209/209/1 208/208/1
f 208/208/1 209/209/1 210/210/1
f 209/209/1 193/193/1 210/210/1
f 210/210/1 193/193/1 211/211/1
f 193/193/1 194/194/1 211/211/1
f 211/211/1 194/194/1 212/212/1
f 195/195/1 196/196/1 213/213/1
f 213/213/1 196/196/1 214/214/1
f 196/196/1 198/198/1 214/214/1
f 214/214/1 198/198/1 215/215/1
f 198/198/1 200/200/1 215/215/1
f 215/215/1 200/200/1 216/216/1
f 200/200/1 202/202/1 216/216/1
f 216/216/1 202/202/1 217/217/1
f 202/202/1 204/204/1 217/217/1
f 217/217/1 204/204/1 218/218/1
f 204/204/1 206/206/1 218/218/1
f 218/218/1 206/206/1 219/219/1
f 206/206/1 208/208/1 219/219/1
f 219/219/1 208/208/1 220/220/1
f 208/208/1 210/210/1 220/220/1
f 220/220/1 210/210/1 221/221/1
f 210/210/1 211/211/1 221/221/1
f 221/221/1 211/211/1 222/222/1
f 211/211/1 212/212/1 222/222/1
f 222/222/1 212/212/1 223/223/1
f 213/213/1 214/214/1 224/224/1
f 224/224/1 214/214/1 225/225/1
f 214/214/1 215/215/1 225/225/1
f 225/225/1 215/215/1 226/226/1
f 215/215/1 216/216/1 226/226/1
f 226/226/1 216/216/1 227/227/1
f 216/216/1 217/217/1 227/227/1
f 227/227/1 217/217/1 228/228/1
f 217/217/1 218/218/1 228/228/1
f 228/228/1 218/218/1 229/229/1
f 218/218/1 219/219/1 229/229/1
f 229/229/1 219/219/1 230/230/1
f 219/219/1 220/220/1 230/230/1
f 230/230/1 220/220/1 231/231/1
f 220/220/1 221/221/1 231/231/1
f 231/231/1 221/221/1 232/232/1
f 221/221/1 222/222/1 232/232/1
f 232/232/1 222/222/1 233/233/1
f 222/222/1 223/223/1 233/233/1
f 233/233/1 223/223/1 234/234/1
